<svg width="72" height="72" viewBox="0 0 72 72" xmlns="http://www.w3.org/2000/svg" data-v-9e47616e=""><path d="M5.47444 31.5409C5.9619 28.535 7.91158 25.8541 10.9175 24.9605C14.0858 24.0669 16.6042 25.6917 19.3663 26.8291C18.6351 26.7478 17.8227 26.7478 16.9291 26.9104C15.3856 27.2354 14.0045 27.9664 12.7859 28.9413C9.94256 31.216 8.39904 34.3844 8.31775 37.9589C8.31775 41.2896 13.4358 41.2896 13.4358 37.9589C13.4358 35.603 14.4918 33.4907 16.3604 32.0284C17.9039 30.8097 20.4223 28.86 22.372 28.5352C22.372 28.7789 27.1651 35.6029 27.9775 39.7461C28.1399 40.4773 28.2212 41.1272 28.3025 41.8584C27.0838 42.427 25.9466 43.1582 24.9717 43.8081C23.9157 44.5392 24.1594 46.5702 25.7029 46.4889C26.5965 46.4076 27.4089 46.3265 28.3025 46.0828C28.14 47.9513 26.9214 52.0944 26.8403 52.2568C20.8286 53.4755 14.9794 55.6689 9.69897 58.9996C8.31789 59.8933 9.53654 61.843 10.9988 61.1931C18.3102 58.0247 25.9466 55.9126 33.9892 55.8313C41.707 55.75 49.4246 57.2124 56.5736 60.137C59.5795 61.3556 60.9604 56.4001 57.9546 55.2627C52.4305 53.0693 46.5 51.8507 40.4883 51.5258C40.4883 51.4445 40.407 51.3633 40.407 51.2821C40.1633 47.7889 40.0009 45.108 39.1884 41.8584C38.5385 39.2588 36.8326 36.2529 35.2077 34.0595C32.8519 30.8912 27.4089 26.9105 24.403 26.5043C28.3836 23.336 33.3392 21.8738 37.5636 25.6107C39.757 27.5604 42.5192 24.1485 40.082 22.3612C35.6952 19.1118 28.6274 18.9492 24.728 22.7674C25.2966 21.2239 26.0278 19.6804 27.0027 18.3806C29.2774 15.3747 33.5018 14.3999 36.995 15.2935C39.6759 15.9434 40.8132 11.8003 38.1323 11.1503C33.2581 9.93166 27.7337 11.2316 24.4843 15.2122C23.6719 16.1872 23.022 17.3245 22.4533 18.543C20.5847 13.9125 15.9542 10.9879 9.86127 11.5565C5.31186 11.9626 6.28677 18.7055 10.6736 17.6494C15.7105 16.4307 20.0973 19.1116 21.3158 23.7423V24.1485C18.2288 20.899 12.867 19.0305 8.80506 20.249C4.41824 21.5488 0.843743 25.6107 0.0312662 30.0788C-0.456047 33.5719 4.90584 34.953 5.47444 31.5409ZM33.4205 36.009C36.4264 40.1523 37.9699 46.245 36.7513 51.2819V51.4444C34.964 51.4444 33.2581 51.5256 31.4708 51.7694C32.202 49.6571 32.6082 47.3013 32.6895 44.9453C33.3394 44.7015 33.9081 44.3767 34.4767 44.0516C35.8578 43.0767 35.6141 40.2334 33.5018 40.4771C33.1768 40.4771 32.8519 40.5584 32.5269 40.6396C32.2019 37.7963 31.3082 35.1154 30.0084 32.6783C31.2271 33.4906 32.4457 34.5468 33.4205 36.009Z" fill="#303030"></path> <path d="M59.01 7.41309C56.0042 6.35702 53.1609 9.52535 52.9984 12.2874C52.836 15.2933 55.1107 18.2179 58.1977 18.4614C61.5285 18.7865 64.1282 15.6181 64.1282 12.4498C64.2093 9.85023 61.6909 6.84434 59.01 7.41309ZM60.0661 12.7748C59.8224 13.7497 59.01 14.8058 57.9538 14.1559C57.2227 13.7497 56.8165 12.7748 57.1415 11.9625C57.3039 11.6375 57.5477 11.3126 57.8727 11.0689C58.0351 11.1502 58.1977 11.2313 58.3602 11.2313C59.4162 11.3937 60.3911 11.3125 60.0661 12.7748Z" fill="#303030"></path> <path d="M58.1176 0.182796C57.7926 -0.0609321 57.3053 -0.0609321 56.9803 0.182796C56.0867 0.7514 56.0867 1.80761 55.9242 2.78238C55.7618 3.91973 55.8429 5.05708 56.6554 5.86941C57.1429 6.35687 57.9552 6.35687 58.4426 5.86941C59.255 5.05708 59.3363 3.83844 59.1738 2.78238C59.0112 1.72631 59.0113 0.7514 58.1176 0.182796Z" fill="#303030"></path> <path d="M59.4165 24.7981C59.6603 23.1733 59.8227 21.3049 58.8479 19.9238C58.3605 19.2739 57.2231 19.0302 56.817 19.9238C56.2484 21.1425 56.1671 22.5234 55.9233 23.8233C55.7609 24.7982 56.1671 25.773 57.2231 26.0167C58.0354 26.3416 59.2541 25.773 59.4165 24.7981Z" fill="#303030"></path> <path d="M50.156 11.3124C48.6938 10.825 46.2565 10.9063 44.9567 11.8811C44.3068 12.3685 44.3881 13.2621 45.2005 13.5059C45.9317 13.7496 46.9064 13.7496 47.6376 13.7496C48.5312 13.7496 49.3436 13.7496 50.156 13.5059C51.2934 13.181 51.1308 11.6375 50.156 11.3124Z" fill="#303030"></path> <path d="M70.2212 11.0688C68.759 10.6626 67.1342 11.2312 65.7531 11.7187C64.697 12.1248 64.7782 13.8309 65.9968 13.7496C67.3779 13.6684 68.8401 13.9934 70.2212 13.6684C71.521 13.4248 71.4398 11.3938 70.2212 11.0688Z" fill="#303030"></path> <path d="M67.2972 4.56965C67.541 4.08219 67.541 3.59473 67.2159 3.10742C66.8909 2.70125 66.3223 2.45753 65.8349 2.61996C64.2913 3.10742 63.479 4.73223 62.7478 6.03202C62.3417 6.7632 63.154 7.4131 63.8039 7.08808C64.4538 6.84435 65.1037 6.51948 65.6724 6.19446C66.2412 5.78829 67.0535 5.30083 67.2972 4.56965Z" fill="#303030"></path> <path d="M50.8858 17.8115C50.3984 17.8115 50.0735 17.974 49.6672 18.2177C49.0986 18.4614 48.6111 18.7863 48.0424 19.03C47.4738 19.355 46.9863 20.0861 47.0675 20.736C47.0675 20.8173 47.0675 22.0358 48.3673 22.6045C49.0984 22.9295 49.9921 22.6045 50.3982 22.1171C50.8044 21.6296 51.2106 21.1421 51.698 20.6548C51.9418 20.3298 52.1855 20.0049 52.2666 19.6799C52.5106 19.1113 52.2669 17.8115 50.8858 17.8115Z" fill="#303030"></path> <path d="M66.4843 18.7052C65.9969 18.4614 65.5907 18.2177 65.1032 18.0553C64.6158 17.8928 64.1283 17.8928 63.6409 17.8928C62.6659 17.8928 62.2598 19.1115 62.9097 19.7614C63.2347 20.0864 63.5596 20.4925 63.9657 20.7363C64.2908 20.98 64.6156 21.2237 64.9407 21.4675C65.4281 21.8736 65.8343 22.1986 66.4029 22.2798C67.0528 22.3611 67.784 22.0361 68.1088 21.3862C68.6777 20.1675 67.5404 19.2739 66.4843 18.7052Z" fill="#303030"></path> <path d="M52.5115 6.2757C52.7553 4.89462 51.2117 3.3511 50.4806 2.94494C49.7494 2.53877 48.7746 2.61992 48.2059 3.26996C47.7184 3.83856 47.4747 4.81348 47.8808 5.54466C48.2059 6.03212 48.5307 6.35699 48.9369 6.68201C49.1806 6.84445 50.6429 7.4132 51.1303 7.49435C52.1867 7.4942 52.5115 6.43814 52.5115 6.2757Z" fill="#303030"></path> <path d="M68.4349 66.2297C69.8973 63.6301 65.754 61.2741 64.4542 63.8739C61.8546 68.9919 56.4116 68.1795 53.4057 63.7926C52.7558 62.8177 51.2123 62.3303 50.2374 63.3864C46.013 68.1795 39.5952 68.5857 35.452 63.3864C34.7208 62.4115 33.2586 62.8989 32.6898 63.7114C29.359 68.7481 22.7787 69.0732 18.9604 64.3613C18.3105 63.6301 16.9295 63.6301 16.2796 64.3613C14.5736 66.2299 12.7051 68.0983 10.0242 68.0171C7.01831 67.9358 4.8249 65.58 1.98159 65.1738C1.41299 65.0925 0.844239 65.4988 1.00668 66.1487C1.98159 69.9669 6.85588 72.0792 10.4304 71.9979C13.355 71.9166 15.9545 70.4544 17.9044 68.4234C20.4228 70.3731 23.4286 71.6729 26.5969 71.348C29.6028 71.023 32.2836 69.4795 34.3146 67.2861C39.1889 71.9166 46.1754 71.9979 51.3747 67.7735C53.487 70.1294 56.1679 71.9166 59.4986 71.8355C63.4793 71.8352 66.5663 69.6418 68.4349 66.2297Z" fill="#303030"></path></svg>