<svg width="73" height="72" viewBox="0 0 73 72" xmlns="http://www.w3.org/2000/svg" data-v-9e47616e=""><g clip-path="url(#clip0_22943_4380)"><path d="M34.458 18.4299C33.5866 13.5464 34.1868 6.16971 30.6341 2.2795C27.5 -1.15221 22.255 0.575709 18.2376 1.26443C13.2737 2.11479 8.69207 1.73825 4.72831 5.33161C1.64939 8.12248 1.37973 13.1208 1.15756 16.949C0.630105 26.0513 -0.0831264 39.055 11.2148 38.4862C10.148 48.0309 10.4939 57.9265 11.6986 66.8714C11.7886 67.5406 12.4295 67.7532 12.9964 67.6256C12.9469 68.0029 13.0576 68.4009 13.4449 68.7426C22.5518 76.7674 29.385 68.6526 30.1308 58.6275C30.574 52.6707 30.6893 45.8284 29.9699 39.1117C39.6893 38.0453 35.5762 24.6942 34.458 18.4299ZM26.9944 45.4557C27.0059 45.7273 27.0063 45.9988 27.0162 46.2704C26.9975 46.28 26.9791 46.2792 26.9603 46.2903C24.8421 47.4874 23.1532 48.6089 20.6512 48.8541C18.2173 49.0931 15.9209 48.2623 13.7724 47.2253C13.8034 46.6512 13.8157 46.0774 13.8536 45.5036C17.7615 46.6266 23.1394 47.4483 26.9944 45.4557ZM14.003 43.4309C14.5986 36.2231 15.8052 29.0866 17.9423 22.3852C19.9605 16.0561 22.9674 23.0467 24.0135 25.7326C25.6993 30.0614 26.1387 34.9583 26.5964 39.5246C26.6956 40.5136 26.773 41.5049 26.8389 42.497C24.9807 43.1329 23.2969 43.9212 21.2196 44.0779C18.8692 44.2548 16.502 43.7496 14.1892 43.4229C14.1217 43.4137 14.0658 43.4301 14.003 43.4309ZM27.0928 49.123C27.1162 50.0813 27.1511 51.0405 27.1702 51.9977C25.0861 52.7745 23.3761 53.8474 21.0886 54.1148C18.4793 54.4201 16.0048 53.6831 13.584 52.8171C13.6066 51.5128 13.638 50.2066 13.6931 48.8989C17.5856 51.2152 23.3034 51.8663 27.0928 49.123ZM27.1917 54.5228C27.1963 55.1801 27.2043 55.8366 27.2062 56.4931C27.1346 56.5142 27.0622 56.5276 26.9948 56.5667C24.8727 57.7966 23.2907 58.4658 20.7664 58.3264C18.472 58.1996 16.3189 57.2918 14.1014 56.798C13.9115 56.7559 13.7376 56.7927 13.5924 56.8743C13.5874 56.0645 13.5633 55.2617 13.5694 54.4488C17.3933 56.4001 23.5002 57.1317 27.1917 54.5228ZM13.6035 58.1399C17.2156 60.0467 23.5225 61.9722 27.2051 59.2614C27.2507 60.6469 27.0553 61.8232 26.6707 62.8352C24.6295 63.3949 22.8092 64.1453 20.6052 64.2621C18.1659 64.3908 15.9041 63.6454 13.7119 62.6859C13.6602 61.1793 13.6238 59.6636 13.6035 58.1399ZM15.5099 66.6772C14.9878 66.2214 14.3769 66.2179 13.8843 66.4539C13.8502 65.8889 13.8333 65.3128 13.8061 64.7432C16.171 65.9965 19.1603 66.6906 22.0217 66.5711C20.2811 66.9802 18.1414 67.0426 15.5099 66.6772ZM29.8052 36.1017C29.727 36.1097 29.6711 36.148 29.5991 36.1649C28.6813 29.9212 26.9607 23.9174 23.9882 18.9964C20.0639 12.4999 15.8998 18.5463 14.4454 22.9912C13.0167 27.3568 12.0702 32.0081 11.4485 36.7559C2.15501 35.5229 3.88714 24.4165 4.14187 16.9494C4.44754 7.97424 8.55648 4.99414 17.2815 4.42609C21.1077 4.17711 27.2625 1.09589 29.3268 6.64661C30.6058 10.0864 30.7789 14.0608 31.2071 17.6707C31.6518 21.4107 36.3786 35.4398 29.8052 36.1017Z" fill="#303030"></path> <path d="M69.1698 2.97706C67.2378 -1.11655 63.4785 0.597581 63.0882 4.62493C62.7848 7.75786 63.6854 11.0884 63.0633 14.1662C63.2571 13.2082 60.1901 9.08396 60.2763 9.32413C60.0733 8.75914 59.8231 6.18699 59.6826 5.26883C59.4447 3.71443 58.3231 2.78975 57.0721 2.09376C56.9219 1.63066 56.5263 1.22999 55.9195 1.1664C49.6353 0.507948 51.5034 9.44479 49.7797 13.8728C48.0196 9.0334 50.2918 0.995949 43.6375 0.0413982C39.1409 -0.603651 39.0846 6.43942 39.0421 9.20731C38.9613 14.4424 36.9614 34.8909 47.2014 30.8977C47.2263 30.9636 47.2508 31.034 47.3366 31.0543C47.2489 31.0819 47.1608 31.1095 47.0731 31.1367C46.6663 31.3688 46.3916 31.8369 46.4016 32.3073C46.5418 38.9707 46.3319 45.6311 46.572 52.2962C46.7456 57.1133 46.3537 62.9958 50.8143 65.879C54.5467 68.291 63.2437 69.9155 64.7935 63.9798C65.8109 60.0835 64.9437 56.3273 64.7491 52.3812C64.5641 48.6193 64.2565 44.8528 63.9156 41.0894C63.9137 41.0365 63.9099 40.9867 63.901 40.9346C63.6272 37.9243 63.3341 34.9162 63.0553 31.9147C68.6588 33.9731 71.7776 26.7424 72.2189 22.4661C72.8808 16.0481 71.9404 8.84763 69.1698 2.97706ZM49.2108 46.4287C49.2748 46.5378 49.3664 46.637 49.523 46.6853C52.7713 47.6877 58.1603 49.2188 61.4587 47.2763C61.5373 48.3795 61.6315 49.4819 61.702 50.5843C59.9595 51.062 58.3967 51.74 56.4872 51.8503C54.4762 51.9664 52.402 51.496 50.4592 51.0271C49.4349 50.7797 49.0197 52.2927 50.0256 52.6007C53.4094 53.638 58.4078 54.6615 61.8636 52.9136C61.8805 53.2093 61.9096 53.5058 61.9253 53.8015C61.9349 53.9816 61.9617 54.2056 61.9854 54.4221C61.8035 54.3343 61.5951 54.2849 61.3496 54.3244C60.5865 54.4481 60.0269 54.8963 59.3531 55.2552C58.3794 55.7742 57.2425 56.0102 56.1681 56.2082C55.705 56.2936 51.4926 56.7525 51.2935 56.2216C51.1096 55.7294 50.2489 55.7531 50.3083 56.3549C50.476 58.0549 53.2259 58.123 54.4463 58.1908C56.5715 58.3088 60.8558 58.0713 62.1869 55.9895C62.2907 56.7318 62.401 57.5427 62.4704 58.3759C62.2968 58.3115 62.1107 58.2782 61.9207 58.313C60.8328 58.5122 59.8928 59.2978 58.7981 59.6062C57.3804 60.0053 55.8709 60.0624 54.4072 60.1019C53.2531 60.1329 51.5516 60.2585 50.2071 60.1356C49.2695 55.6784 49.1641 51.0624 49.2108 46.4287ZM59.1436 65.1765C56.1152 65.5495 52.0779 64.1522 50.6503 61.3763C52.2086 61.865 53.8737 61.9635 55.5924 62.0071C57.4406 62.0542 61.086 61.9796 62.5385 60.3145C62.4742 62.7234 61.7414 64.8566 59.1436 65.1765ZM69.0925 23.8849C68.3382 27.8141 66.451 28.6699 62.9993 29.719C62.6538 29.824 62.4608 30.0439 62.3374 30.294C61.4691 29.7413 60.0794 30.0818 60.1897 31.3769C60.4414 34.3512 60.6743 37.3336 60.9117 40.3141C57.3341 41.2211 54.1272 41.0672 50.4458 39.7238C49.636 39.4285 49.0687 40.7672 49.8574 41.1196C53.3048 42.6602 57.3651 43.6071 61.1098 42.7675C61.1745 43.6018 61.2492 44.4341 61.312 45.2684C59.6328 45.7166 58.2224 46.2509 56.4359 46.3494C54.2104 46.4719 51.9826 46.1 49.8264 45.5886C49.5246 45.5166 49.3246 45.6794 49.2174 45.8889C49.2744 41.328 49.4537 36.7556 49.1132 32.308C49.0622 31.6465 48.7225 31.2413 48.1172 31.0007C48.0579 30.977 47.8935 30.7866 47.7641 30.6518C47.9667 30.5591 48.1647 30.4767 48.3766 30.3656C49.1618 29.9546 48.6857 28.9656 47.9721 28.8729C42.4102 28.1482 41.8866 24.8693 41.8767 19.8043C41.8709 16.8824 42.1226 13.9827 42.0207 11.0586C41.9648 9.44977 41.9728 7.85017 42.0751 6.24368C42.1287 5.4661 42.2655 4.70498 42.4861 3.96034C43.428 0.244796 45.768 6.06097 45.8929 7.1695C46.3181 10.9486 46.1936 14.5263 48.6508 17.6416C49.1718 18.3024 50.1501 18.0978 50.7005 17.6416C54.5888 14.419 52.1151 5.65072 55.872 3.81976C57.6808 7.3051 58.6158 18.2001 64.1673 16.6729C67.3278 15.8034 65.8776 9.19198 65.8442 7.01743C65.7986 4.07372 65.9706 2.373 67.3301 5.95027C68.3666 8.67755 68.909 11.6347 69.2717 14.5179C69.6613 17.6186 69.6824 20.8121 69.0925 23.8849Z" fill="#303030"></path></g> <defs><clipPath id="clip0_22943_4380"><rect width="72" height="72" fill="white" transform="translate(0.666626)"></rect></clipPath></defs></svg>