<svg width="73" height="72" viewBox="0 0 73 72" xmlns="http://www.w3.org/2000/svg" data-v-9e47616e=""><path d="M68.3927 20.9978C66.3017 20.5927 36.1007 -0.743769 34.4032 2.69254C32.8703 5.54268 -5.73568 21.5625 4.0701 27.0579L17.1063 34.9248V38.5732C17.0899 38.5694 13.0222 34.4731 13.0023 34.4748C8.67728 30.4039 -0.647358 39.7607 3.48955 44.0462C3.48776 44.0513 13.8187 54.3664 13.8143 54.3742C18.209 57.7566 25.306 68.0714 30.7144 69.6767C35.2109 69.9086 41.0713 62.5702 37.6792 59.1461L33.9847 55.4516C40.6412 55.2015 52.4406 55.5246 55.3575 48.446L55.3564 34.9247L57.3688 33.7104C59.1333 35.6944 60.5959 37.9275 61.7096 40.3378C61.1671 40.5514 60.6891 40.9018 60.3222 41.3549C59.9553 41.808 59.7119 42.3484 59.6157 42.9234C59.5195 43.4985 59.5738 44.0886 59.7733 44.6365C59.9729 45.1843 60.3108 45.6712 60.7543 46.0497C58.349 52.7558 56.9477 57.8171 66.256 54.5774C69.0758 53.6393 68.8517 46.0938 66.8751 44.2784C67.1741 43.7904 67.3285 43.2276 67.3206 42.6553C67.3126 42.083 67.1425 41.5248 66.83 41.0453C66.5176 40.5658 66.0755 40.1847 65.5552 39.9463C65.0349 39.7079 64.4577 39.6219 63.8905 39.6983C62.7212 37.1016 61.1819 34.6879 59.3204 32.5326C62.0382 30.2755 74.9037 25.9043 68.3927 20.9978ZM61.7398 43.2143C61.7397 43.2267 61.7381 43.2391 61.7351 43.2511C61.7349 43.2387 61.7365 43.2263 61.7398 43.2144V43.2143ZM60.9734 53.4575C60.8804 53.5077 60.9425 53.4308 60.9734 53.4575V53.4575ZM61.2291 53.4697C61.7612 51.357 62.2544 49.2548 62.6625 47.1132C63.1754 47.121 63.6842 47.0197 64.1551 46.816C64.626 46.6123 65.0482 46.3108 65.3937 45.9316C66.3111 48.1121 66.09 50.6404 66.0221 52.9691C65.744 53.0819 65.4535 53.1608 65.1566 53.2042C65.734 49.7735 62.0432 50.1888 62.6836 53.4409C62.2003 53.4651 61.7118 53.4854 61.2291 53.4697V53.4697ZM62.7538 44.9101L62.8189 44.9389C62.7854 44.9322 62.7578 44.9233 62.7538 44.9101ZM65.1629 42.6109C65.2042 43.609 63.5125 45.3783 62.5478 44.7692L62.6471 44.8448C61.3537 43.933 61.4904 42.3347 63.1217 41.985C63.7288 42.318 64.6057 41.9757 65.1132 42.4267C65.1263 42.489 65.1429 42.5505 65.1629 42.6109V42.6109ZM64.8841 42.2637L64.9221 42.282L64.8841 42.2637ZM65.0582 42.3513C65.0679 42.3622 65.0769 42.3737 65.085 42.3858L65.0582 42.3513ZM65.1395 42.418L65.139 42.4156L65.1395 42.418ZM64.8809 42.262C64.8192 42.2298 64.7615 42.195 64.8809 42.262V42.262ZM6.6545 37.6685C11.2193 33.491 13.7489 36.7466 9.83662 40.8506C5.48618 44.8891 2.61146 42.0237 6.6545 37.6685ZM12.1791 49.5541C18.1714 48.0689 15.6217 44.363 11.1039 48.4789L10.1949 47.5699C17.0921 45.3827 15.1937 41.2185 8.86761 46.2426L7.45341 44.8285C8.95016 44.3626 10.3114 43.5401 11.4199 42.4318C12.5284 41.3234 13.3511 39.9624 13.8172 38.4657L20.8904 45.539C20.6706 45.7473 20.5302 46.0258 20.4936 46.3265C18.6469 48.3315 16.6527 50.1955 14.5278 51.9028L12.1791 49.5541ZM53.1063 42.8194C45.7134 49.0523 33.1689 48.4843 24.1263 45.5932L19.3563 40.8232V36.2826C38.8052 48.2784 33.7028 48.2247 53.1063 36.2825V42.8194ZM31.4242 52.891L30.2575 51.7243C30.666 51.0454 30.9996 50.3242 31.2525 49.5734C31.7255 49.6352 32.1987 49.69 32.6727 49.7341C31.9845 50.6574 31.5537 51.7468 31.4242 52.8911L31.4242 52.891ZM27.4139 48.8807C28.338 49.0983 29.2673 49.2738 30.1986 49.4218C29.9035 49.9095 29.6735 50.4337 29.5142 50.9811L27.4139 48.8807ZM16.2326 53.3031C18.7428 51.7382 20.9144 49.6868 22.6194 47.2696L25.674 50.3242C24.2776 53.0957 21.2716 54.3959 19.3174 56.6924L16.2022 53.5773L16.3642 53.4153C16.3195 53.3787 16.2765 53.3404 16.2326 53.3031H16.2326ZM34.5037 65.5117C32.9309 67.5152 31.2572 67.5841 29.6047 66.7237C31.0289 66.0314 36.0222 62.2832 32.8863 61.3428C30.8708 62.0991 29.9077 64.6026 28.0097 65.6297C26.9184 64.6697 25.9042 63.6256 24.9765 62.5068C28.7275 61.3803 28.1774 57.1994 24.5617 60.5681L24.7615 60.4138C24.4439 60.6579 24.1366 60.9081 23.8321 61.1679C23.525 60.8093 23.2264 60.4663 22.9366 60.1451C27.9652 58.3942 25.9352 54.9318 22.006 59.1761C21.6932 58.8644 21.3476 58.5875 20.9752 58.3503L21.2351 58.0904C21.2148 58.0719 21.1949 58.0529 21.1739 58.0354C23.4316 56.3049 26.2395 54.8747 27.4586 52.166C29.7048 55.4643 40.3547 60.8828 34.5037 65.5117ZM32.9878 53.0984C33.4377 51.9914 33.9483 50.91 34.5173 49.8593C35.0301 49.8822 35.5429 49.8951 36.0556 49.8981C35.6765 50.3592 35.3951 50.8925 35.2284 51.4657C35.0618 52.0389 35.0133 52.6399 35.086 53.2324C34.3892 53.2087 33.6897 53.1618 32.9878 53.0984ZM36.2607 53.2565C36.5749 52.9286 36.8318 52.5503 37.0206 52.1373C37.3547 51.3611 37.7387 50.6059 38.1169 49.8517C38.9782 49.8099 39.8379 49.7436 40.6948 49.6444C38.0602 54.5603 41.6292 52.948 42.5417 49.3829C43.1956 49.2753 43.8471 49.1505 44.4959 49.0084C43.9902 49.8469 42.55 52.2076 44.2942 52.3753C41.6577 52.9684 38.963 53.2639 36.2607 53.2565V53.2565ZM52.5488 49.4909C49.9451 50.753 47.2061 51.7145 44.3848 52.3568C45.7358 51.5437 46.1096 49.6283 47.0233 48.3777C47.6432 48.1995 48.2587 48.0021 48.8714 47.7931C46.0411 53.4561 50.3703 50.3995 51.074 46.9679C51.3961 46.8366 51.7169 46.701 52.0363 46.5612C50.7863 48.0758 52.3894 49.2215 53.1204 47.2899C53.1572 48.2031 53.1484 49.2521 52.5488 49.4909ZM67.2304 25.132L57.7425 30.8574C53.529 26.3172 45.3584 23.1387 40.5943 22.9761C40.3422 21.9128 39.7111 20.9778 38.8192 20.3463C37.9273 19.7148 36.8357 19.4301 35.749 19.5455C34.6623 19.6609 33.6549 20.1686 32.9155 20.9733C32.1761 21.778 31.7555 22.8247 31.7323 23.9173C31.7091 25.0099 32.0851 26.0735 32.7897 26.9088C33.4943 27.7442 34.4792 28.294 35.5601 28.4554C36.641 28.6168 37.7436 28.3786 38.6614 27.7855C39.5793 27.1924 40.2495 26.285 40.5465 25.2333C46.215 25.8209 51.5448 28.2138 55.7507 32.0593C55.2084 32.0718 35.7412 44.9107 35.5645 43.4368C34.9301 42.3886 4.19315 25.8107 4.6094 24.0273C4.19376 22.2456 34.9307 5.66606 35.5663 4.61728C35.7674 4.49667 35.9977 4.43315 36.2323 4.43352C36.4668 4.43389 36.6969 4.49816 36.8977 4.61941C36.9254 5.82571 71.7414 22.9341 67.2304 25.132ZM36.306 25.154C36.851 25.1182 37.4901 25.0986 38.1943 25.1051C32.9961 30.0819 32.7068 18.1366 38.1422 22.8546C36.1743 22.1981 33.4829 24.3653 36.306 25.154Z" fill="#303030"></path></svg>