<svg width="73" height="72" viewBox="0 0 73 72" xmlns="http://www.w3.org/2000/svg" data-v-9e47616e=""><g clip-path="url(#clip0_22943_4432)"><path d="M72.5959 33.5438C71.7696 26.1094 63.0961 24.1819 57.4516 27.3485C59.517 19.6387 56.0749 11.1028 48.3648 7.93628C42.1697 5.32046 34.322 7.79861 31.4308 13.8563C29.9164 12.0665 27.4382 10.9651 25.0978 11.6535C22.895 12.3419 21.3805 14.5447 21.6559 16.7475C17.3882 14.82 11.8812 16.0591 8.98979 19.7763C6.78698 22.6675 6.23628 28.0368 8.71443 31.0657C2.79441 33.2685 -1.19817 40.0146 1.55533 46.2099C3.89581 51.4416 10.2289 52.8183 14.7721 50.0648C12.9824 55.8472 16.2866 61.9049 22.0689 64.1077C28.1266 66.3105 35.5611 63.6947 38.7276 58.1881C42.0318 64.5207 50.1546 66.8617 56.6256 63.6949C61.9949 61.0791 66.5379 53.2316 61.3065 48.6883C68.8787 49.2388 73.2842 40.2899 72.5959 33.5438ZM59.5165 48.8258C64.4728 54.6081 58.2775 61.354 52.3576 62.4556C49.4662 63.0063 46.4378 62.4556 43.822 60.9412C43.5464 60.804 38.7278 57.4993 39.5539 56.3983C39.6913 56.2607 39.5539 56.1225 39.4164 55.9851C39.1408 55.4346 38.315 55.159 37.9022 55.5721C34.4603 59.4272 30.8808 63.0067 25.2361 62.043C18.49 61.0793 15.0482 55.0216 16.5626 48.5506V48.4132C16.8379 48.1376 16.9756 48.0002 17.251 47.7244C17.664 47.1739 16.8379 46.623 16.4249 46.8983C11.6063 49.5141 4.72253 50.7534 3.20811 43.4564C2.24438 38.2248 5.96161 34.6452 9.81651 31.8917C9.95418 32.0294 10.0919 32.1671 10.3672 32.1671C10.9179 32.4424 11.6063 31.8917 11.3309 31.2034C11.3309 31.0657 11.1933 30.928 11.1933 30.928C11.3309 30.6527 11.1933 30.3773 10.7802 30.3773C8.99046 27.2108 8.30208 23.9066 10.7802 20.7401C13.5337 17.1605 18.077 17.0228 22.2073 17.8489C22.2073 17.9866 22.3449 17.9866 22.3449 18.1242C22.8956 18.9503 24.1347 18.3996 23.8594 17.4359C23.3087 15.5084 24.8231 13.581 26.7505 13.4433C28.4026 13.3056 29.7794 14.2693 30.8808 15.5084C30.8808 15.5084 30.8808 15.5084 30.8808 15.6461C30.7431 16.1968 31.2938 16.6098 31.7068 16.3345C32.1199 16.7475 33.0836 16.1968 32.8082 15.6461C32.8082 15.5084 32.6706 15.3707 32.5329 15.2331C35.8371 10.1391 41.8946 7.52326 47.6769 10.0014C54.9739 13.1679 57.4519 21.2908 55.9376 28.5875C55.8002 29.1382 56.3507 29.4136 56.7637 29.2759C56.9011 29.2759 57.1767 29.2759 57.4523 29.2759C63.3721 26.7978 71.0821 28.1745 70.1186 36.1597C69.5679 41.2539 66.8144 47.1737 60.8942 46.8981C60.4811 46.8981 60.2058 47.3111 60.0681 47.7241C59.5165 47.7244 59.2414 48.4127 59.5165 48.8258Z" fill="#303030"></path> <path d="M46.8511 28.0369C42.7211 22.2546 36.5257 28.0369 33.4966 32.7179C29.6417 29.5514 22.758 25.6965 21.3812 32.5802C20.1422 38.913 28.265 43.8696 33.772 44.1449C34.3227 44.5579 35.0111 44.8335 35.6994 44.6954C41.0688 43.7317 50.9814 33.957 46.8511 28.0369Z" fill="#303030"></path></g> <defs><clipPath id="clip0_22943_4432"><rect width="72" height="72" fill="white" transform="translate(0.666626 0.000244141)"></rect></clipPath></defs></svg>