<svg width="73" height="72" viewBox="0 0 73 72" fill="none" xmlns="http://www.w3.org/2000/svg" data-v-9e47616e=""><g clip-path="url(#clip0_22943_4389)"><path d="M69.4127 53.6854C64.4985 55.6669 60.6146 57.807 55.2249 58.3619C52.213 58.679 49.2011 58.2826 46.1098 58.9959C43.9698 59.4715 42.1467 60.4227 40.3237 61.2945C40.0859 56.7766 39.7689 52.1794 39.4518 47.6614C39.9274 48.137 40.6408 48.2162 41.354 47.6614C43.0185 46.3139 44.5244 44.9665 46.0305 43.5398C46.5061 44.491 46.9817 45.3629 47.4572 46.3139C47.695 46.8687 48.6461 47.0273 49.0424 46.5517C49.5972 45.8383 50.2314 45.0458 50.7862 44.3324C51.3409 45.3628 52.0543 46.4724 53.0055 46.948C53.4811 47.1858 53.8774 47.1065 54.2737 46.7895C55.2249 46.0761 55.9381 44.491 56.493 43.1435C57.9197 44.8873 59.6634 46.9482 61.5658 47.6614C63.0718 48.2162 64.0229 46.3933 63.468 45.2043C62.9924 44.0946 61.7243 43.2227 60.8524 42.3508C59.6634 41.0827 58.4746 39.8937 57.3649 38.5462C57.2856 38.3877 57.1271 38.3084 57.0478 38.1499C57.5234 37.8328 57.999 37.5159 58.4744 37.1988C58.95 38.1499 59.7426 38.9425 60.3767 39.4973C61.2486 40.2107 62.3582 40.5276 63.3886 39.7351C64.0227 39.2595 64.4983 38.5461 65.053 37.9913L65.4493 37.595C66.2419 38.7047 67.1137 39.8144 67.9064 40.9241C69.2539 42.9056 72.3451 41.0825 71.0768 39.0218C69.8087 36.961 64.7359 29.7482 62.8337 29.4312C61.2484 29.1934 60.1387 30.2238 59.2669 31.4127C57.9194 32.998 56.6512 34.5831 55.3038 36.1684C55.066 35.8513 54.8282 35.6136 54.6697 35.2965C54.0356 34.3453 53.56 33.0772 52.2919 32.7602C49.5177 32.0468 39.3722 45.7592 39.3722 45.8383C39.3722 45.4421 38.7381 38.5462 38.421 35.455C38.3417 34.9794 38.3417 34.4246 38.1832 33.7906C40.7195 32.9187 42.9389 31.2543 41.5122 28.4008C40.7988 26.8949 39.4514 26.1815 37.9454 26.023C38.0247 25.7852 37.5491 21.188 36.4395 19.9199C36.2017 19.6028 35.6469 19.6821 35.4883 20.0783C34.6957 21.505 35.0127 25.8645 35.092 26.023C32.8726 25.9437 30.8119 25.7059 29.1473 23.883C27.7207 22.377 27.3243 20.0783 26.0561 18.4139C25.6598 17.8591 25.2635 17.4627 24.788 17.0664C25.5805 16.908 26.4524 16.5908 27.1658 16.1946C30.3362 14.213 31.763 10.0914 30.4155 6.68324C29.6229 4.5432 26.2146 5.41508 27.0073 7.63443C28.4339 11.756 23.6783 15.6398 20.2701 12.2316C18.7641 10.7256 18.9226 8.5063 20.1908 6.84186C22.0138 4.46403 24.1539 5.5737 26.611 5.09811C27.2451 4.781 27.5622 3.67147 27.0073 3.19587C23.9161 0.738729 19.4774 2.00689 17.1789 4.86031C15.0388 7.55525 15.0388 11.2012 17.0996 13.8962C15.9899 14.3718 15.118 15.2437 14.3254 16.3533C12.978 14.8474 10.6795 14.5303 8.61859 15.323C5.13109 16.7496 3.86293 20.792 3.07023 24.2002C2.59463 26.2611 2.27766 28.4011 1.88124 30.5411C1.56413 32.2056 1.08868 33.9493 1.40565 35.6139C2.03972 38.4673 4.89315 39.894 7.58809 39.7355C6.32036 46.3141 2.91216 64.7027 3.78404 66.7635C2.59505 67.2391 1.56469 67.8732 0.613645 68.6658C-0.0997461 69.2998 0.692958 70.251 1.40621 70.0924C3.30845 69.7753 32.7146 66.0501 34.5375 65.1782C34.6168 65.1782 36.5191 64.6235 37.3909 64.3857C38.1835 65.3369 40.165 65.0991 40.4028 63.6723C42.6222 63.276 45 62.9589 47.14 62.6419C50.152 62.1663 53.2432 62.5626 56.3344 62.0872C58.95 61.6909 61.2486 60.4227 63.785 59.7886C66.2421 59.1546 68.62 58.4412 70.9978 57.5693C73.6928 56.6973 71.8697 52.655 69.4127 53.6854ZM64.0228 35.5345C63.785 35.7723 62.4375 37.516 61.9619 37.516C61.1694 37.516 60.5353 36.2479 59.9011 35.5345C62.1206 31.1751 62.6753 32.8395 64.0228 35.5345ZM51.4996 36.7233C52.847 36.7233 54.1152 40.2901 54.7493 41.0827C54.5908 41.479 54.4322 41.7961 54.2737 42.1924C54.0359 42.7471 53.8774 44.4909 53.4811 44.4909C52.7677 44.4909 52.2921 42.43 51.8959 41.6375C51.4996 40.8449 50.4692 41.0034 49.9936 41.6375C49.4389 42.3508 48.9633 44.0153 48.4083 43.8568C47.8536 43.6983 47.695 42.6678 47.378 42.113C48.0912 41.3998 50.3899 36.7233 51.4996 36.7233ZM8.06411 35.5345C6.95443 35.4551 6.00325 35.6138 5.60696 34.4248C5.36917 33.6322 6.08256 31.7298 6.24104 30.9373C6.63732 28.6388 7.03361 26.3401 7.66769 24.1208C8.22245 22.2185 9.33212 18.5724 12.0271 19.1273C12.1856 19.2066 12.4233 19.2858 12.6611 19.4444C10.9174 23.4075 10.1248 28.401 9.49061 30.8581C9.09433 32.4434 8.77722 34.0285 8.46025 35.6138C8.30191 35.5345 8.22273 35.5345 8.06411 35.5345ZM6.39967 64.3064C6.47898 63.4345 6.55815 62.5626 6.71678 61.6907C6.95458 59.8677 7.27154 57.9654 7.58865 56.1424C8.69833 49.0089 9.96649 41.8753 11.5518 34.8211C12.3443 31.3336 13.3748 27.8461 14.2467 24.3586C16.783 14.8472 21.0632 16.8286 21.1424 16.8286C22.6483 17.859 23.758 19.1272 24.6299 20.7124C25.3433 21.9806 25.6603 23.4865 26.453 24.7548C28.1174 27.2912 30.8123 28.4008 33.7451 28.8764C35.1717 29.1142 37.5497 28.3217 38.2629 29.669C38.9763 30.3031 36.8363 30.9371 36.4399 31.0165C35.6473 31.1749 34.8546 31.1749 34.062 31.1749C30.5745 31.0956 27.2455 29.3519 25.0262 26.7362C23.6787 25.2303 21.5387 26.4984 21.3802 28.0837C20.5083 31.0956 19.7949 34.4246 20.1912 37.595C20.746 41.6373 23.9165 42.6678 26.3736 45.3626C28.91 48.1367 28.91 52.4169 29.3856 55.9836C29.7027 58.5199 30.2574 60.8978 31.4464 63.1171C29.9405 63.6719 28.593 63.5927 27.9589 61.4527C27.5626 60.1052 27.4041 58.6786 27.0077 57.3311C26.453 55.3495 25.5811 53.5265 24.3921 51.7827C22.6483 49.0878 20.8253 45.9966 18.289 43.9358C17.6549 42.7468 15.3562 43.064 15.1977 44.7284C14.8806 48.3744 13.2955 51.5449 11.7102 54.7946C10.6799 56.8555 9.0153 59.4711 9.33241 61.9281C9.49089 63.0378 10.0458 64.1475 10.9968 64.7815C11.2346 64.94 11.314 65.0193 11.314 65.0193C11.3138 65.0991 6.32036 65.6538 6.39967 64.3064ZM17.2585 64.782C16.5451 64.782 15.7525 64.8613 14.9599 64.8613C14.8806 64.1479 14.4844 63.4346 13.9296 62.8797C12.9784 61.8494 12.6614 61.3738 13.137 59.8678C13.5333 58.7581 14.1674 57.6485 14.643 56.5388C16.1489 53.3684 17.4964 50.2772 18.2098 46.8689C20.3498 50.0392 22.807 53.3683 23.996 56.9351C24.7093 59.2336 24.5507 62.4834 25.9775 64.5442C23.0446 64.5442 20.1912 64.7027 17.2585 64.782ZM35.0924 63.1967C35.0131 63.0382 34.9339 62.8796 34.8546 62.7211C30.8915 57.807 33.1109 50.5148 29.8612 45.2043C28.1967 42.5093 24.075 41.1619 23.3617 38.0708C22.8861 36.0099 23.2033 33.6321 23.758 31.4921C26.6908 33.7114 30.3367 34.8211 34.1414 34.6624C34.617 34.6624 35.0925 34.5831 35.6473 34.504C35.6473 34.9002 35.6473 35.3758 35.7266 35.6929C35.8059 38.7842 35.9644 41.7961 36.2022 44.8873C36.5985 50.7526 37.3119 56.7766 37.1534 62.6419C37.0741 62.6419 36.9156 62.7212 36.8363 62.7212C36.2021 62.8797 35.6472 63.0382 35.0924 63.1967Z" fill="#303030"></path></g> <defs><clipPath id="clip0_22943_4389"><rect width="72" height="72" fill="white" transform="translate(0.333313)"></rect></clipPath></defs></svg>