<svg width="72" height="72" viewBox="0 0 72 72" xmlns="http://www.w3.org/2000/svg" data-v-9e47616e=""><g clip-path="url(#clip0_22943_4423)"><path d="M43.1979 30.4431C41.8929 31.3962 40.5586 32.3346 39.4443 33.4929C37.6555 35.355 36.0426 37.3784 34.3711 39.3432C33.7699 39.6218 33.2128 39.9443 32.6703 40.2816C31.0721 38.6834 29.3712 37.1731 27.8903 35.4576C27.7584 35.2964 27.1572 35.4283 26.8346 35.6189C26.1895 35.9855 25.9402 36.6013 25.8962 37.2025C25.7496 39.1966 26.3948 40.7801 27.4065 42.0411C28.4328 43.3167 29.4299 44.6363 30.4856 45.8973C31.3067 46.8943 32.7729 47.0263 33.7553 46.2052L34.1365 45.8973C35.8813 44.4604 37.5382 42.9501 38.9311 41.1467C39.3123 40.8387 39.6936 40.5455 40.0601 40.2376C42.3914 38.2435 44.6055 36.1321 46.3356 33.5515C46.8195 32.8184 46.8635 31.836 45.8664 30.9416C45.0013 30.1205 43.931 29.9153 43.1979 30.4431Z" fill="#303030"></path> <path d="M67.2887 37.1147C67.2887 37.1 67.2887 37.0853 67.2887 37.0707C67.1714 32.4227 66.7316 28.4932 65.8958 27.3788C65.8958 27.3788 65.8958 27.3642 65.8811 27.3642C65.6759 27.0269 65.4559 26.9536 65.192 27.0123C65.0894 27.0563 64.9721 27.1149 64.8694 27.3642C63.8871 28.1413 63.1393 31.7336 62.9047 36.8654C62.9047 36.8654 62.9047 36.8654 62.9047 36.8801L62.89 37.012C62.8754 37.2613 62.8607 37.5839 62.8314 37.9064L62.7287 40.0032C62.6847 40.5897 62.6114 41.2495 62.5088 41.8653C62.2889 43.1116 61.9663 44.3286 61.4971 45.5016C61.0426 46.6892 60.4707 47.8329 59.8109 48.9326C59.4737 49.4751 59.1218 50.0322 58.7552 50.5454L58.4913 50.9266L58.1834 51.3519L58.0221 51.5571L57.8901 51.7331L57.5822 52.1143C54.3125 56.2491 50.0604 59.5335 45.4271 62.2167C43.5357 63.3164 41.6589 64.2548 39.6208 65.1638L36.5417 66.5274L36.1605 66.7034H36.1458L35.9112 66.6154L35.1488 66.3222C31.0726 64.7386 27.1724 62.8179 23.5801 60.4132C21.806 59.2109 20.0758 57.862 18.5069 56.4544C18.1257 56.1318 17.7005 55.7066 17.29 55.3254C16.9381 54.9881 16.5422 54.5923 16.1756 54.1964C15.4425 53.4193 14.7534 52.6275 14.1229 51.7917C12.8473 50.1202 11.7916 48.3167 11.0145 46.4106C10.8238 45.9414 10.6479 45.4429 10.4866 44.9591L10.2667 44.2406L10.0467 43.4195C9.81214 42.4664 9.60687 41.3814 9.48957 40.3551C9.44558 40.5457 9.41625 40.7656 9.37227 40.9562C9.40159 40.7363 9.44558 40.531 9.48957 40.3551C9.46024 39.8859 9.44558 39.4167 9.44558 38.9475C9.44558 38.4783 9.46024 38.0531 9.48957 37.5252L9.62153 34.4901C9.69484 32.4667 9.76815 30.4286 9.84146 28.4052C9.97343 24.3437 10.0614 20.2676 10.1347 16.1914L10.1494 15.473L10.9411 15.4143C13.1112 15.209 15.2812 14.8572 17.3926 14.3293C21.6447 13.3029 25.6915 11.6168 29.4598 9.57869C31.3512 8.55232 33.1693 7.45264 34.9728 6.26499L36.1458 5.47322L36.9669 6.04505C40.5005 8.4057 44.2688 10.5464 48.3009 12.1739C50.339 12.995 52.3478 13.6695 54.5471 14.2413L56.1013 14.6079C56.6585 14.7252 57.2157 14.8278 57.7582 14.9305C58.8432 15.1064 59.9136 15.2384 60.9399 15.3703L61.9516 15.4876V15.8982C61.937 17.9509 61.9223 19.989 61.9076 22.0271C61.893 23.4786 62.4062 25.766 62.7581 26.4844C63.4765 27.9067 64.0777 26.0592 64.5322 23.288C64.9134 21.0007 65.236 18.5961 65.5146 16.1035C65.5879 15.473 65.6466 14.8718 65.7052 14.1827C65.7199 13.7868 65.7199 13.3029 65.3826 12.7311C65.2067 12.4672 64.9574 12.2326 64.7082 12.1006C64.4589 11.954 64.239 11.866 64.019 11.8074C63.5792 11.6754 63.2859 11.6314 62.9633 11.5581L61.9956 11.3675C61.3505 11.2355 60.7053 11.1182 60.0602 10.9863C55.0017 9.97457 49.9871 7.95116 45.2512 5.29727C43.8142 4.49084 42.4213 3.62576 41.0577 2.71669C40.3686 2.26215 39.6941 1.79296 39.0196 1.3091C38.6677 1.0745 38.3892 0.825238 37.788 0.473341L37.5094 0.326717C37.4068 0.28273 37.2748 0.22408 37.1429 0.180093C36.9962 0.136106 36.8203 0.0921185 36.659 0.0481313C36.4684 0.0188065 36.2778 -0.0105183 36.0725 0.00414414C35.6766 0.00414414 35.2954 0.106781 35.0608 0.194755C34.9288 0.238742 34.7969 0.297392 34.7236 0.341379C34.6356 0.385366 34.5183 0.444016 34.4596 0.473341C34.1371 0.64929 33.9611 0.781251 33.7558 0.913213L33.228 1.26511L32.1576 1.95424C31.4538 2.39411 30.7794 2.81932 30.0609 3.22987C28.6533 4.08029 27.2017 4.84273 25.7502 5.56119C22.8323 6.99811 19.7972 8.15644 16.7035 8.93354C15.1493 9.34409 13.5804 9.60801 12.0115 9.84261C11.2197 9.93059 10.428 10.0332 9.63619 10.0772L9.03503 10.1212L8.72712 10.1359C8.59516 10.1505 8.38989 10.1652 8.21394 10.1945C7.8767 10.2532 7.40751 10.3118 6.7477 10.649C6.42513 10.825 6.05857 11.0889 5.75066 11.4408C5.45741 11.778 5.23747 12.1739 5.12017 12.4818C4.88557 13.127 4.84159 13.5522 4.81226 13.8748C4.78294 14.212 4.78294 14.4759 4.78294 14.7252L4.76828 16.0008L4.75361 18.5521L4.72429 23.6546C4.72429 27.0563 4.70963 30.4579 4.70963 33.8743V36.4255C4.72429 37.276 4.69496 38.0824 4.75361 39.0941C4.7976 40.0325 4.90024 40.9709 5.0322 41.8946C5.10551 42.3638 5.17882 42.8183 5.2668 43.2729L5.41342 43.962L5.48673 44.2992L5.57471 44.6805C5.75066 45.4282 6.08789 46.5279 6.3958 47.3784C6.73304 48.2728 7.0996 49.1525 7.52481 50.0029C8.36056 51.7038 9.40159 53.2873 10.5306 54.7535C11.6156 56.2344 12.8033 57.6127 14.0789 58.903C14.3868 59.2109 14.6507 59.4895 14.988 59.8121L15.9997 60.7505C16.6741 61.3516 17.3486 61.9381 18.0377 62.4953C22.4511 66.0729 27.4363 68.8441 32.5828 70.9555C32.9054 71.0874 33.228 71.2194 33.5506 71.3514L34.6209 71.7619L34.6796 71.7766L34.9142 71.8499C35.1048 71.8939 35.1781 71.9085 35.3101 71.9379C35.53 71.9818 35.7499 71.9965 35.9552 71.9965C36.3511 72.0112 36.7176 71.9818 37.0989 71.9085C37.2895 71.8792 37.4801 71.8206 37.6707 71.7619C37.7733 71.7326 37.876 71.7033 37.9786 71.6593L38.1839 71.5713L38.6384 71.3807C39.8554 70.8675 41.1017 70.3397 42.3627 69.7825C43.6236 69.2107 44.8846 68.6242 46.1749 67.935L47.0546 67.4512L47.993 66.9233C48.6088 66.5714 49.21 66.2195 49.8112 65.8383C54.5911 62.8618 59.0338 59.0203 62.3475 54.255C64.0044 51.8944 65.412 49.2405 66.2917 46.352C66.7316 44.9151 67.0395 43.4342 67.1714 41.9239C67.2448 41.1908 67.2887 40.399 67.2741 39.6953V37.7012C67.2887 37.5106 67.2887 37.3053 67.2887 37.1147ZM61.9956 14.2413C61.9956 14.2413 61.9956 14.1827 61.9956 14.2413V14.2413ZM36.0578 67.7298C36.0725 67.8177 35.9845 67.8471 35.9405 67.9057C36.1165 67.4805 35.6473 68.5802 36.0725 67.5685C36.0578 67.6271 36.0578 67.6711 36.0578 67.7298ZM36.3364 67.4512L36.3218 67.4218C36.3364 67.4365 36.3364 67.4512 36.3364 67.4658V67.4512Z" fill="#303030"></path></g> <defs><clipPath id="clip0_22943_4423"><rect width="72" height="72" fill="white" transform="translate(0 0.000244141)"></rect></clipPath></defs></svg>