<svg data-v-27adf0dc="" width="28" height="20" viewBox="0 0 28 20" fill="none" xmlns="http://www.w3.org/2000/svg" class="header__lang-flag"><rect width="28" height="20" rx="2" fill="white"></rect> <mask id="mask0_23555_2577" maskUnits="userSpaceOnUse" x="0" y="0" width="28" height="20" style="mask-type: luminance;"><rect width="28" height="20" rx="2" fill="white"></rect></mask> <g mask="url(#mask0_23555_2577)"><rect width="28" height="20" fill="#0A17A7"></rect> <path fill-rule="evenodd" clip-rule="evenodd" d="M-1.28244 -1.9165L10.6667 6.14329V-1.33339H17.3334V6.14329L29.2825 -1.9165L30.7737 0.294263L21.3263 6.66661H28V13.3333H21.3263L30.7737 19.7056L29.2825 21.9164L17.3334 13.8566V21.3333H10.6667V13.8566L-1.28244 21.9164L-2.77362 19.7056L6.67377 13.3333H2.95639e-05V6.66661H6.67377L-2.77362 0.294263L-1.28244 -1.9165Z" fill="white"></path> <path fill-rule="evenodd" clip-rule="evenodd" d="M31.6118 -2.18308C31.713 -2.02928 31.6703 -1.82259 31.5165 -1.72141L18.8512 6.61079C18.6974 6.71197 18.4907 6.66931 18.3895 6.51551C18.2883 6.36172 18.331 6.15502 18.4848 6.05384L31.1501 -2.27836C31.3039 -2.37954 31.5106 -2.33688 31.6118 -2.18308Z" fill="#DB1F35"></path> <path fill-rule="evenodd" clip-rule="evenodd" d="M31.643 21.5365C31.7459 21.3839 31.7056 21.1767 31.5529 21.0738L20.1991 13.421C20.0464 13.3181 19.8392 13.3584 19.7363 13.5111C19.6334 13.6637 19.6738 13.8709 19.8264 13.9738L31.1803 21.6266C31.3329 21.7295 31.5401 21.6892 31.643 21.5365Z" fill="#DB1F35"></path> <path fill-rule="evenodd" clip-rule="evenodd" d="M-4.11389 -1.85732C-4.011 -2.00998 -3.80384 -2.05033 -3.65118 -1.94745L8.19184 6.034C8.3445 6.13688 8.38485 6.34404 8.28197 6.49671C8.17908 6.64937 7.97192 6.68972 7.81926 6.58684L-4.02376 -1.39461C-4.17642 -1.49749 -4.21677 -1.70465 -4.11389 -1.85732Z" fill="#DB1F35"></path> <path fill-rule="evenodd" clip-rule="evenodd" d="M-4.11527 22.4947C-4.01352 22.6481 -3.80667 22.69 -3.65324 22.5882L9.47428 13.8827C9.6277 13.7809 9.6696 13.5741 9.56785 13.4206C9.46611 13.2672 9.25926 13.2253 9.10583 13.3271L-4.02169 22.0326C-4.17512 22.1344 -4.21701 22.3412 -4.11527 22.4947Z" fill="#DB1F35"></path> <path fill-rule="evenodd" clip-rule="evenodd" d="M0 12H12V20H16V12H28V8H16V0H12V8H0V12Z" fill="#E6273E"></path></g></svg>